<svg width="126" height="23" viewBox="0 0 126 23" fill="none" xmlns="http://www.w3.org/2000/svg">
<path d="M5.8 15.024C5.48 15.024 5.01067 15.0027 4.392 14.96C3.77333 14.9173 3.16533 14.832 2.568 14.704V11.728C3.31467 11.8133 3.944 11.8773 4.456 11.92C4.968 11.9413 5.52267 11.952 6.12 11.952C7.208 11.952 8.09333 11.824 8.776 11.568C9.48 11.2907 9.992 10.8747 10.312 10.32C10.6533 9.744 10.824 9.02933 10.824 8.176C10.824 6.81067 10.408 5.76533 9.576 5.04C8.744 4.31467 7.624 3.952 6.216 3.952H4.008V22H0.0400002V0.943998H6.888C8.488 0.943998 9.88533 1.2 11.08 1.712C12.296 2.224 13.2453 2.94933 13.928 3.888C14.6107 4.82667 14.952 5.94667 14.952 7.248C14.952 8.29333 14.728 9.28533 14.28 10.224C13.832 11.1413 13.2027 11.9627 12.392 12.688C11.5813 13.4133 10.6107 13.9893 9.48 14.416C8.37067 14.8213 7.144 15.024 5.8 15.024ZM25.9475 22V0.943998H32.2195C33.8195 0.943998 35.2062 1.168 36.3795 1.616C37.5528 2.064 38.4595 2.704 39.0995 3.536C39.7395 4.34667 40.0595 5.31733 40.0595 6.448C40.0595 7.38667 39.8462 8.28267 39.4195 9.136C38.9928 9.98933 38.4062 10.7467 37.6595 11.408C36.9342 12.0693 36.1022 12.592 35.1635 12.976C34.2248 13.36 33.2435 13.552 32.2195 13.552H27.3875V10.864H32.7315C33.3288 10.864 33.8728 10.6933 34.3635 10.352C34.8542 10.0107 35.2488 9.56267 35.5475 9.008C35.8462 8.432 35.9955 7.81333 35.9955 7.152C35.9955 6.17067 35.6328 5.38133 34.9075 4.784C34.2035 4.18667 33.1902 3.888 31.8675 3.888H29.8515V22H25.9475ZM41.7555 22.352C40.8595 22.352 40.0702 22.2347 39.3875 22C38.7262 21.744 38.1182 21.3493 37.5635 20.816C37.0088 20.2827 36.4328 19.568 35.8355 18.672L31.8995 12.656L35.0675 11.536L39.6755 17.296C40.1875 17.9147 40.6462 18.3947 41.0515 18.736C41.4568 19.056 41.8302 19.2693 42.1715 19.376C42.5342 19.4827 42.8648 19.536 43.1635 19.536C43.2915 19.536 43.4728 19.5253 43.7075 19.504C43.9635 19.4827 44.1982 19.4293 44.4115 19.344L45.2755 21.616C44.5928 21.8933 43.9635 22.0853 43.3875 22.192C42.8328 22.2987 42.2888 22.352 41.7555 22.352ZM62.553 22.416C60.8037 22.416 59.2677 22.0747 57.945 21.392C56.6223 20.688 55.5877 19.696 54.841 18.416C54.1157 17.136 53.753 15.6213 53.753 13.872V0.943998H57.849V13.008C57.849 14.3093 58.0623 15.4187 58.489 16.336C58.9157 17.2533 59.5343 17.9573 60.345 18.448C61.177 18.9173 62.1583 19.152 63.289 19.152C64.3983 19.152 65.337 18.9387 66.105 18.512C66.873 18.064 67.449 17.4453 67.833 16.656C68.2383 15.8667 68.441 14.96 68.441 13.936V0.943998H71.961V13.008C71.961 14.9067 71.5663 16.56 70.777 17.968C70.009 19.376 68.921 20.4747 67.513 21.264C66.105 22.032 64.4517 22.416 62.553 22.416ZM92.9337 16.816C92.9337 16.24 92.7631 15.7387 92.4217 15.312C92.0804 14.8853 91.6217 14.5013 91.0457 14.16C90.4911 13.8187 89.8831 13.488 89.2217 13.168C88.5604 12.848 87.8884 12.5067 87.2057 12.144C86.5444 11.7813 85.9257 11.3653 85.3497 10.896C84.7951 10.4267 84.3471 9.872 84.0057 9.232C83.6644 8.592 83.4937 7.83467 83.4937 6.96C83.4937 5.59467 83.8137 4.44267 84.4537 3.504C85.1151 2.544 85.9791 1.808 87.0457 1.296C88.1337 0.784 89.3284 0.528 90.6297 0.528C91.4404 0.528 92.3364 0.623999 93.3177 0.815998C94.2991 1.008 95.1737 1.296 95.9417 1.68L94.5337 5.328C93.8724 4.752 93.1044 4.31467 92.2297 4.016C91.3551 3.696 90.5657 3.536 89.8617 3.536C89.2004 3.536 88.6777 3.664 88.2937 3.92C87.9097 4.176 87.6324 4.496 87.4617 4.88C87.3124 5.24267 87.2377 5.59467 87.2377 5.936C87.2377 6.448 87.4084 6.896 87.7497 7.28C88.0911 7.664 88.5391 8.02667 89.0937 8.368C89.6697 8.688 90.2991 9.008 90.9817 9.328C91.6644 9.648 92.3364 10 92.9977 10.384C93.6804 10.768 94.2991 11.216 94.8537 11.728C95.4297 12.2187 95.8884 12.7947 96.2297 13.456C96.5711 14.096 96.7417 14.864 96.7417 15.76C96.7417 17.2107 96.3897 18.4373 95.6857 19.44C94.9817 20.4213 94.0537 21.168 92.9017 21.68C91.7711 22.1707 90.5337 22.416 89.1897 22.416C87.8031 22.416 86.5231 22.2133 85.3497 21.808C84.1764 21.4027 83.2164 20.9333 82.4697 20.4L84.4217 17.04C85.2111 17.7013 86.1071 18.256 87.1097 18.704C88.1124 19.1307 89.0937 19.344 90.0537 19.344C90.8857 19.344 91.5684 19.12 92.1017 18.672C92.6564 18.224 92.9337 17.6053 92.9337 16.816ZM120.111 22L111.407 11.248L119.215 0.943998H124.047L114.671 11.856L114.991 10.032L125.871 22H120.111ZM107.951 22V0.943998H111.887V22H107.951Z" fill="#E8E5DD"/>
</svg>
